<svg xmlns="http://www.w3.org/2000/svg" width="800" height="800" viewBox="0 0 800 800"><rect width="100%" height="100%" fill="#DDDDDD"/><path fill="#999999" d="M178.19 383.4v27.02h-5.4l-10.91-18.46-.11.02v18.44h-5.42V383.4h5.42l10.91 18.45.11-.02V383.4h5.4Zm3.79 17.19v-.39q0-4.49 2.5-7.36 2.51-2.87 6.94-2.87 4.45 0 6.98 2.86 2.52 2.86 2.52 7.37v.39q0 4.52-2.51 7.37-2.52 2.85-6.95 2.85-4.45 0-6.97-2.85-2.51-2.85-2.51-7.37Zm5.4-.39v.39q0 2.74.96 4.4.97 1.66 3.12 1.66 2.09 0 3.07-1.67.97-1.67.97-4.39v-.39q0-2.68-.98-4.36-.98-1.69-3.1-1.69-2.1 0-3.07 1.7-.97 1.69-.97 4.35Zm32.54-16.8v27.02h-5.42V383.4h5.42Zm4.96 6.94h5.02l.23 2.66q.96-1.45 2.42-2.24 1.45-.79 3.37-.79 1.92 0 3.3.86 1.37.85 2.08 2.58.92-1.62 2.41-2.53 1.48-.91 3.49-.91 2.97 0 4.68 2.05 1.72 2.05 1.72 6.25v12.15h-5.42v-12.17q0-2.28-.74-3.17-.74-.9-2.21-.9-1.15 0-1.99.51-.85.52-1.35 1.42 0 .36.02.61t.02.51v13.19h-5.4v-12.17q0-2.23-.74-3.15-.75-.92-2.23-.92-1.1 0-1.92.42-.83.42-1.37 1.18v14.64h-5.39v-20.08Zm50.07 20.08h-5.41q-.3-.69-.51-1.45-.22-.76-.31-1.56-.84 1.47-2.2 2.43-1.36.97-3.26.97-3.15 0-4.86-1.62-1.7-1.63-1.7-4.43 0-2.95 2.27-4.57 2.27-1.63 6.63-1.63h3.03v-1.59q0-1.45-.76-2.25t-2.25-.8q-1.32 0-2.03.65-.71.64-.71 1.77l-5.24-.02-.02-.11q-.13-2.54 2.21-4.39 2.34-1.85 6.14-1.85 3.6 0 5.85 1.83 2.24 1.83 2.24 5.2v8.3q0 1.41.22 2.65.21 1.25.67 2.47Zm-10.37-3.62q1.43 0 2.54-.7 1.12-.71 1.51-1.64v-2.83h-3.03q-1.72 0-2.61.86-.89.86-.89 2.09 0 1 .66 1.61.67.61 1.82.61Zm12.75-5.86v-.39q0-4.75 2.07-7.66 2.07-2.92 5.8-2.92 1.68 0 2.97.76 1.28.76 2.18 2.17l.43-2.56h4.68v19.99q0 3.91-2.57 6.06-2.57 2.14-7.16 2.14-1.52 0-3.22-.42-1.71-.42-3.16-1.14l1-4.05q1.25.6 2.54.9 1.29.31 2.81.31 2.22 0 3.27-.93 1.05-.92 1.05-2.89v-1.82q-.89 1.13-2.1 1.73-1.2.59-2.76.59-3.69 0-5.76-2.72t-2.07-7.15Zm5.42-.39v.39q0 2.63.89 4.15.89 1.51 2.89 1.51 1.25 0 2.11-.46.86-.45 1.38-1.32v-8.72q-.52-.91-1.38-1.41-.86-.51-2.07-.51-1.99 0-2.9 1.77-.92 1.76-.92 4.6Zm25.75 10.26q-4.34 0-6.94-2.78-2.6-2.79-2.6-7.07v-.75q0-4.47 2.46-7.36 2.46-2.9 6.6-2.88 4.06 0 6.31 2.45 2.24 2.45 2.24 6.63V402h-11.98l-.04.11q.15 1.98 1.33 3.26 1.17 1.28 3.2 1.28 1.8 0 2.98-.36 1.19-.36 2.6-1.14l1.47 3.34q-1.23 1-3.21 1.66-1.99.66-4.42.66Zm-.48-16.66q-1.5 0-2.38 1.15-.87 1.15-1.07 3.02l.05.1h6.65v-.49q0-1.72-.81-2.75t-2.44-1.03Zm20.33 6.44v-.39q0-4.49 2.51-7.36 2.5-2.87 6.94-2.87 4.45 0 6.98 2.86 2.52 2.86 2.52 7.37v.39q0 4.52-2.52 7.37-2.51 2.85-6.94 2.85-4.46 0-6.97-2.85-2.52-2.85-2.52-7.37Zm5.4-.39v.39q0 2.74.97 4.4.96 1.66 3.12 1.66 2.09 0 3.07-1.67.97-1.67.97-4.39v-.39q0-2.68-.98-4.36-.99-1.69-3.1-1.69-2.1 0-3.07 1.7-.98 1.69-.98 4.35Zm28.02-10-.57 4.8-1.99-.05q-1.2 0-1.98.5t-1.19 1.41v13.56h-5.4v-20.08h5.03l.24 2.97q.7-1.57 1.83-2.46 1.12-.88 2.58-.88.41 0 .76.07.34.06.69.16Zm30.75-6.8v4.18h-7.65v22.84h-5.42v-22.84h-7.6v-4.18h20.67Zm12.28 6.8-.58 4.8-1.98-.05q-1.21 0-1.99.5t-1.18 1.41v13.56h-5.4v-20.08h5.03l.24 2.97q.7-1.57 1.82-2.46 1.13-.88 2.59-.88.41 0 .75.07.35.06.7.16Zm19.37 20.22h-5.42q-.29-.69-.51-1.45-.21-.76-.3-1.56-.84 1.47-2.2 2.43-1.37.97-3.26.97-3.15 0-4.86-1.62-1.71-1.63-1.71-4.43 0-2.95 2.28-4.57 2.27-1.63 6.63-1.63h3.02v-1.59q0-1.45-.76-2.25t-2.24-.8q-1.32 0-2.03.65-.72.64-.72 1.77l-5.23-.02-.02-.11q-.13-2.54 2.21-4.39 2.34-1.85 6.14-1.85 3.6 0 5.85 1.83 2.24 1.83 2.24 5.2v8.3q0 1.41.21 2.65.22 1.25.68 2.47Zm-10.37-3.62q1.43 0 2.54-.7 1.11-.71 1.5-1.64v-2.83h-3.02q-1.73 0-2.62.86-.89.86-.89 2.09 0 1 .67 1.61.67.61 1.82.61Zm19.28-16.46v20.08h-5.42v-20.08h5.42Zm0-8.87v4.07h-5.42v-4.07h5.42Zm10.15 0v28.95h-5.42v-28.95h5.42Zm13.34 29.34q-4.34 0-6.94-2.78-2.6-2.79-2.6-7.07v-.75q0-4.47 2.46-7.36 2.46-2.9 6.6-2.88 4.06 0 6.3 2.45 2.25 2.45 2.25 6.63V402h-11.99l-.03.11q.14 1.98 1.32 3.26 1.18 1.28 3.2 1.28 1.8 0 2.99-.36 1.19-.36 2.6-1.14l1.46 3.34q-1.22 1-3.21 1.66-1.98.66-4.41.66Zm-.48-16.66q-1.51 0-2.38 1.15-.87 1.15-1.08 3.02l.06.1h6.64v-.49q0-1.72-.8-2.75-.81-1.03-2.44-1.03Zm22.84-3.95-.58 4.8-1.98-.05q-1.21 0-1.99.5t-1.19 1.41v13.56h-5.4v-20.08h5.03l.24 2.97q.71-1.57 1.83-2.46 1.12-.88 2.59-.88.41 0 .75.07.34.06.7.16Zm28.4 20.22-1.83-5.83h-9.49l-1.83 5.83h-5.48l9.3-27.02h5.55l9.26 27.02h-5.48Zm-6.62-20.69-3.36 10.61h6.81l-3.34-10.61h-.11Zm18.05.61 3.38 12.6.35 1.86h.11l.37-1.86 3.31-12.6h5.66l-6.83 20.08h-5.18l-6.83-20.08h5.66Zm32.42 20.08h-5.42q-.3-.69-.51-1.45-.21-.76-.31-1.56-.83 1.47-2.2 2.43-1.36.97-3.25.97-3.16 0-4.86-1.62-1.71-1.63-1.71-4.43 0-2.95 2.27-4.57 2.28-1.63 6.64-1.63h3.02v-1.59q0-1.45-.76-2.25t-2.25-.8q-1.31 0-2.03.65-.71.64-.71 1.77l-5.23-.02-.02-.11q-.13-2.54 2.21-4.39 2.33-1.85 6.14-1.85 3.6 0 5.84 1.83 2.25 1.83 2.25 5.2v8.3q0 1.41.21 2.65.21 1.25.68 2.47Zm-10.37-3.62q1.42 0 2.54-.7 1.11-.71 1.5-1.64v-2.83h-3.02q-1.73 0-2.62.86-.89.86-.89 2.09 0 1 .67 1.61.67.61 1.82.61Zm19.27-16.46v20.08h-5.41v-20.08h5.41Zm0-8.87v4.07h-5.41v-4.07h5.41Zm10.15 0v28.95h-5.41v-28.95h5.41Zm21.66 28.95h-5.42q-.3-.69-.51-1.45-.21-.76-.31-1.56-.83 1.47-2.2 2.43-1.36.97-3.25.97-3.16 0-4.86-1.62-1.71-1.63-1.71-4.43 0-2.95 2.27-4.57 2.28-1.63 6.64-1.63h3.02v-1.59q0-1.45-.76-2.25t-2.25-.8q-1.31 0-2.03.65-.71.64-.71 1.77l-5.23-.02-.02-.11q-.13-2.54 2.2-4.39 2.34-1.85 6.15-1.85 3.6 0 5.84 1.83 2.25 1.83 2.25 5.2v8.3q0 1.41.21 2.65.21 1.25.68 2.47Zm-10.38-3.62q1.43 0 2.55-.7 1.11-.71 1.5-1.64v-2.83h-3.02q-1.73 0-2.62.86-.89.86-.89 2.09 0 1 .67 1.61.66.61 1.81.61Zm31.7-6.25v.39q0 4.49-2.01 7.18-2 2.69-5.79 2.69-1.74 0-3.05-.73-1.31-.74-2.22-2.15l-.4 2.49h-4.64v-28.95h5.4v11.01q.87-1.21 2.08-1.86 1.22-.65 2.8-.65 3.82 0 5.82 2.89 2.01 2.88 2.01 7.69Zm-5.4.39v-.39q0-2.93-.87-4.65-.86-1.72-2.94-1.72-1.26 0-2.13.53-.87.53-1.37 1.52v8.49q.5.91 1.38 1.4.88.48 2.16.48 2.1 0 2.93-1.48.84-1.47.84-4.18Zm14.43-19.47v28.95h-5.42v-28.95h5.42Zm13.34 29.34q-4.34 0-6.94-2.78-2.59-2.79-2.59-7.07v-.75q0-4.47 2.45-7.36 2.46-2.9 6.6-2.88 4.06 0 6.31 2.45 2.24 2.45 2.24 6.63V402h-11.98l-.04.11q.15 1.98 1.33 3.26 1.18 1.28 3.2 1.28 1.8 0 2.99-.36 1.18-.36 2.59-1.14l1.47 3.34q-1.23 1-3.21 1.66-1.99.66-4.42.66Zm-.48-16.66q-1.5 0-2.37 1.15-.88 1.15-1.08 3.02l.06.1h6.64v-.49q0-1.72-.81-2.75t-2.44-1.03Z"/></svg>